<?xml version="1.0" encoding="UTF-8" ?>
<!DOCTYPE svg PUBLIC "-//W3C//DTD SVG 1.1//EN" "http://www.w3.org/Graphics/SVG/1.1/DTD/svg11.dtd">
<svg width="500pt" height="123pt" viewBox="0 0 500 123" version="1.1" xmlns="http://www.w3.org/2000/svg">
<g id="#a41e22ff">
<path fill="#a41e22" opacity="1.00" d=" M 59.53 0.00 L 74.25 0.00 C 74.25 4.37 74.22 8.75 74.29 13.12 C 77.30 13.11 80.30 13.13 83.31 13.13 C 83.32 16.57 83.31 20.00 83.31 23.43 C 80.29 23.43 77.27 23.44 74.26 23.44 C 74.24 32.32 74.25 41.20 74.24 50.08 C 74.31 51.90 74.25 54.02 75.68 55.39 C 77.66 57.27 80.55 56.32 82.94 56.18 C 83.37 59.71 83.81 63.23 84.08 66.77 C 78.05 68.38 71.03 69.09 65.55 65.53 C 61.07 62.64 59.71 56.99 59.61 51.98 C 59.48 42.47 59.61 32.96 59.55 23.45 C 56.94 23.44 54.32 23.44 51.70 23.44 C 51.69 20.02 51.68 16.59 51.67 13.17 C 54.30 13.13 56.93 13.11 59.56 13.11 C 59.56 8.74 59.58 4.37 59.53 0.00 Z" />
<path fill="#a41e22" opacity="1.00" d=" M 111.62 14.56 C 114.65 12.02 118.86 11.77 122.57 12.68 C 122.02 17.04 121.62 21.41 120.91 25.75 C 117.30 25.67 113.23 24.91 110.05 27.10 C 108.51 28.24 106.94 29.89 107.13 31.96 C 107.11 43.66 107.14 55.36 107.12 67.06 C 102.27 67.07 97.42 67.06 92.56 67.06 C 92.57 49.08 92.54 31.10 92.58 13.11 C 97.06 13.11 101.55 13.17 106.04 13.07 C 106.34 15.39 106.51 17.72 106.70 20.05 C 108.58 18.44 109.55 15.99 111.62 14.56 Z" />
</g>
<g id="#888888ff">
<path fill="#888888" opacity="1.00" d=" M 142.47 20.08 C 147.66 12.39 158.80 9.84 166.85 14.36 C 169.44 15.87 171.32 18.35 172.40 21.12 C 174.86 17.91 177.67 14.72 181.61 13.35 C 187.77 11.14 195.52 11.83 200.22 16.74 C 204.38 20.98 205.49 27.19 205.66 32.91 C 205.75 44.27 205.64 55.64 205.71 67.01 C 200.83 67.12 195.94 67.04 191.06 67.06 C 191.05 56.36 191.07 45.66 191.06 34.96 C 190.96 32.09 190.99 29.01 189.50 26.45 C 185.40 20.28 172.60 24.07 174.27 31.96 C 174.37 43.66 174.29 55.36 174.31 67.06 C 169.44 67.06 164.56 67.06 159.69 67.06 C 159.67 56.03 159.71 44.99 159.67 33.96 C 159.58 30.53 159.27 26.23 155.89 24.37 C 151.70 22.37 146.12 23.57 143.25 27.27 C 142.66 28.77 143.03 30.44 142.93 32.01 C 142.96 43.69 142.93 55.38 142.94 67.06 C 138.05 67.02 133.16 67.16 128.27 66.97 C 128.35 49.03 128.29 31.08 128.30 13.13 C 132.84 13.11 137.39 13.13 141.93 13.12 C 142.13 15.44 142.32 17.76 142.47 20.08 Z" />
<path fill="#888888" opacity="1.00" d=" M 255.74 12.84 C 262.93 10.65 271.29 13.37 275.13 20.00 C 275.46 17.70 275.84 15.42 276.23 13.13 C 280.44 13.11 284.66 13.12 288.87 13.12 C 288.85 31.45 288.95 49.78 288.83 68.10 C 288.81 75.19 284.88 82.15 278.49 85.37 C 268.23 90.58 255.76 89.42 245.51 84.77 C 246.27 81.06 247.28 77.40 248.16 73.72 C 254.79 76.63 262.74 78.35 269.69 75.57 C 274.77 73.16 274.24 66.76 274.21 62.05 C 267.26 70.80 252.35 69.77 245.82 61.06 C 239.56 53.05 239.35 42.14 240.67 32.50 C 241.97 24.09 246.88 15.01 255.74 12.84 M 257.12 28.24 C 253.98 35.25 253.93 43.63 256.17 50.90 C 258.57 58.69 270.30 58.57 274.21 52.16 C 274.11 44.36 274.28 36.56 274.14 28.76 C 271.32 22.16 260.12 21.32 257.12 28.24 Z" />
<path fill="#888888" opacity="1.00" d=" M 314.33 20.96 C 316.58 14.76 323.58 10.29 330.09 12.83 C 329.44 17.11 329.02 21.42 328.47 25.71 C 324.78 25.72 320.60 24.86 317.40 27.18 C 315.96 28.35 314.37 29.93 314.56 31.95 C 314.62 43.59 314.44 55.24 314.66 66.88 C 309.79 67.27 304.89 66.97 300.00 67.06 C 300.00 49.08 299.99 31.10 300.00 13.12 C 304.54 13.13 309.08 13.10 313.61 13.14 C 313.77 15.76 314.02 18.36 314.33 20.96 Z" />
<path fill="#888888" opacity="1.00" d=" M 352.63 12.79 C 360.43 11.31 369.27 12.30 375.50 17.59 C 381.70 22.81 384.59 31.07 384.57 39.02 C 384.89 46.70 383.00 54.83 377.68 60.62 C 372.82 66.16 365.16 68.42 357.97 68.06 C 350.97 68.00 343.81 65.12 339.50 59.46 C 333.33 51.79 332.60 41.15 334.36 31.81 C 336.17 22.69 343.25 14.45 352.63 12.79 M 354.32 24.47 C 350.57 26.49 349.11 30.92 348.49 34.87 C 347.87 40.65 347.81 46.91 350.63 52.18 C 353.67 58.13 363.39 58.49 366.98 52.91 C 369.65 48.79 370.02 43.72 369.92 38.95 C 369.83 34.63 369.07 30.03 366.32 26.56 C 363.49 23.11 358.17 22.61 354.32 24.47 Z" />
<path fill="#888888" opacity="1.00" d=" M 465.20 19.35 C 470.86 10.67 484.03 9.94 491.49 16.61 C 497.25 21.85 499.43 29.81 500.00 37.34 L 500.00 44.68 C 499.47 50.75 497.83 57.01 493.76 61.71 C 486.99 69.87 472.50 70.59 465.75 62.02 C 465.89 70.60 465.78 79.17 465.81 87.75 C 460.96 87.75 456.10 87.75 451.25 87.75 C 451.25 62.88 451.25 38.00 451.25 13.12 C 455.63 13.12 460.02 13.14 464.41 13.10 C 464.70 15.18 464.96 17.26 465.20 19.35 M 471.07 24.06 C 468.23 25.11 465.19 27.67 465.80 31.04 C 465.89 38.06 465.70 45.08 465.88 52.10 C 469.19 58.23 480.02 58.74 483.20 52.19 C 485.32 48.17 485.45 43.46 485.34 39.02 C 485.13 34.66 484.44 30.04 481.73 26.48 C 479.29 23.26 474.67 22.81 471.07 24.06 Z" />
<path fill="#888888" opacity="1.00" d=" M 0.00 13.27 C 5.62 13.02 11.25 13.15 16.88 13.12 C 19.64 18.86 22.30 24.65 25.09 30.38 C 28.01 24.71 30.73 18.94 33.46 13.17 C 39.01 13.07 44.56 13.14 50.11 13.12 C 44.69 22.03 39.23 30.91 33.81 39.81 C 39.42 48.89 45.04 57.97 50.65 67.06 C 45.14 67.07 39.63 67.06 34.12 67.06 C 31.19 61.13 28.24 55.20 25.33 49.26 C 22.42 55.15 19.42 61.00 16.64 66.95 C 11.10 67.18 5.55 67.04 0.01 67.04 C 5.50 57.90 11.20 48.89 16.77 39.80 C 14.01 35.35 11.32 30.84 8.56 26.38 C 5.48 22.30 3.76 17.22 0.00 13.64 L 0.00 13.27 Z" />
<path fill="#888888" opacity="1.00" d=" M 393.18 13.12 C 398.04 13.12 402.89 13.12 407.75 13.12 C 407.79 24.40 407.68 35.68 407.81 46.96 C 407.85 50.52 408.76 54.98 412.56 56.34 C 415.97 57.31 419.88 56.84 422.92 54.98 C 424.19 54.01 426.03 52.96 425.68 51.07 C 425.70 38.42 425.68 25.77 425.69 13.12 C 430.56 13.12 435.44 13.12 440.31 13.12 C 440.31 31.10 440.32 49.08 440.31 67.06 C 436.15 67.06 431.99 67.06 427.83 67.06 C 427.39 64.51 426.95 61.95 426.56 59.39 C 421.52 68.80 407.76 70.89 399.69 64.29 C 394.66 60.14 393.33 53.25 393.20 47.05 C 393.15 35.74 393.20 24.43 393.18 13.12 Z" />
<path fill="#888888" opacity="1.00" d=" M 358.25 81.43 C 360.04 81.44 361.83 81.44 363.63 81.44 C 363.62 83.17 363.62 84.90 363.63 86.63 C 361.83 86.62 360.04 86.62 358.25 86.63 C 358.24 84.90 358.25 83.16 358.25 81.43 Z" />
<path fill="#888888" opacity="1.00" d=" M 436.37 81.44 C 438.18 81.44 439.99 81.43 441.81 81.43 C 441.81 83.16 441.81 84.90 441.81 86.63 C 439.99 86.63 438.18 86.63 436.37 86.63 C 436.37 84.90 436.37 83.17 436.37 81.44 Z" />
<path fill="#888888" opacity="1.00" d=" M 133.77 90.96 C 134.05 86.81 137.83 83.49 141.97 83.64 C 146.67 83.10 150.99 87.30 150.63 92.00 C 150.71 96.61 146.64 99.42 143.48 102.04 C 146.17 105.42 148.42 109.16 151.46 112.26 C 152.33 109.81 152.84 107.26 153.12 104.68 C 154.58 104.69 156.03 104.69 157.49 104.70 C 157.33 108.72 156.49 112.78 154.09 116.11 C 155.60 118.28 157.18 120.40 158.78 122.51 C 156.61 122.50 154.45 122.49 152.28 122.45 C 151.86 121.81 151.01 120.53 150.58 119.88 C 148.38 121.24 146.07 122.44 143.53 123.00 L 139.72 123.00 C 134.73 122.44 130.53 118.10 130.62 113.00 C 130.14 108.23 133.67 104.58 137.05 101.79 C 134.96 98.60 132.97 94.92 133.77 90.96 M 140.28 88.51 C 137.50 91.44 139.04 95.85 141.02 98.76 C 143.20 97.01 146.22 95.27 146.05 92.03 C 146.52 89.04 142.73 86.27 140.28 88.51 M 137.80 117.24 C 140.55 120.21 145.27 118.76 148.02 116.52 C 145.09 112.77 142.41 108.83 139.41 105.13 C 136.25 108.17 134.68 113.62 137.80 117.24 Z" />
<path fill="#888888" opacity="1.00" d=" M 105.12 86.93 C 106.92 86.94 108.71 86.96 110.51 86.97 C 110.50 89.31 110.50 91.65 110.50 94.00 C 111.98 94.00 113.46 94.00 114.94 94.00 C 114.94 95.29 114.94 96.58 114.94 97.88 C 113.46 97.88 111.98 97.88 110.51 97.88 C 110.68 104.27 110.12 110.71 110.78 117.07 C 111.24 119.29 113.77 118.64 115.38 118.66 C 115.49 119.56 115.72 121.34 115.84 122.24 C 115.23 122.43 114.01 122.81 113.40 123.00 L 110.22 123.00 C 107.37 122.46 105.40 119.93 105.28 117.08 C 104.90 110.69 105.23 104.28 105.12 97.88 C 103.87 97.88 102.62 97.88 101.38 97.87 C 101.37 96.59 101.37 95.30 101.36 94.02 C 102.61 94.01 103.87 94.00 105.12 93.99 C 105.12 91.63 105.12 89.28 105.12 86.93 Z" />
<path fill="#888888" opacity="1.00" d=" M 421.00 86.94 C 422.79 86.94 424.58 86.94 426.38 86.94 C 426.37 89.28 426.37 91.62 426.35 93.96 C 427.84 93.98 429.33 94.00 430.82 94.02 C 430.81 95.30 430.81 96.57 430.81 97.85 C 429.31 97.87 427.82 97.92 426.33 97.94 C 426.56 104.11 426.09 110.30 426.56 116.45 C 426.60 119.04 429.44 118.87 431.27 118.65 C 431.39 119.54 431.62 121.33 431.74 122.22 C 431.14 122.42 429.95 122.81 429.36 123.00 L 426.20 123.00 C 423.34 122.53 421.32 120.01 421.19 117.17 C 420.75 110.75 421.12 104.31 421.00 97.88 C 419.76 97.88 418.54 97.88 417.31 97.88 C 417.31 96.59 417.30 95.30 417.30 94.01 C 418.53 94.00 419.76 94.00 421.00 94.00 C 421.00 91.64 421.00 89.29 421.00 86.94 Z" />
<path fill="#888888" opacity="1.00" d=" M 6.96 97.99 C 10.09 92.73 18.44 91.82 22.49 96.45 C 25.61 99.99 25.37 104.97 25.41 109.37 C 20.24 109.38 15.07 109.37 9.90 109.38 C 10.12 112.58 10.44 116.56 13.59 118.31 C 16.85 119.85 20.48 118.31 23.13 116.28 C 23.69 117.48 24.25 118.68 24.80 119.89 C 22.65 121.34 20.32 122.62 17.72 123.00 L 14.28 123.00 C 9.22 122.44 5.32 117.95 4.83 113.00 C 4.48 107.99 3.99 102.37 6.96 97.99 M 10.01 105.52 C 13.33 105.49 16.65 105.46 19.97 105.55 C 20.29 102.33 19.17 97.35 15.01 97.59 C 11.25 98.01 10.27 102.41 10.01 105.52 Z" />
<path fill="#888888" opacity="1.00" d=" M 27.52 94.00 C 29.39 94.00 31.27 94.00 33.14 94.00 C 34.93 101.41 36.85 108.79 38.56 116.22 C 40.16 108.77 42.12 101.41 43.88 94.00 C 45.74 94.00 47.60 94.00 49.47 94.00 C 46.63 103.50 43.75 112.99 40.92 122.49 C 39.33 122.49 37.74 122.50 36.14 122.51 C 33.26 113.01 30.39 103.50 27.52 94.00 Z" />
<path fill="#888888" opacity="1.00" d=" M 54.62 97.53 C 57.88 92.70 65.72 92.00 69.68 96.30 C 72.93 99.82 72.72 104.91 72.71 109.37 C 67.56 109.39 62.40 109.35 57.24 109.40 C 57.46 112.53 57.75 116.41 60.76 118.21 C 64.01 119.91 67.78 118.34 70.48 116.30 C 71.04 117.46 71.60 118.61 72.16 119.77 C 70.13 121.26 67.89 122.50 65.40 123.00 L 61.46 123.00 C 56.13 122.29 52.24 117.32 52.07 112.08 C 51.90 107.18 51.42 101.66 54.62 97.53 M 59.76 98.77 C 58.01 100.56 57.67 103.13 57.27 105.48 C 60.65 105.51 64.02 105.50 67.39 105.49 C 67.23 103.34 67.27 100.96 65.87 99.17 C 64.52 97.23 61.35 97.06 59.76 98.77 Z" />
<path fill="#888888" opacity="1.00" d=" M 77.28 94.04 C 78.96 94.02 80.64 94.00 82.33 93.99 C 82.37 95.31 82.42 96.63 82.45 97.95 C 84.22 95.52 86.73 93.12 90.00 93.49 C 94.15 93.33 97.04 97.25 97.32 101.07 C 97.97 108.19 97.47 115.36 97.63 122.50 C 95.81 122.50 94.00 122.50 92.19 122.50 C 92.14 116.21 92.26 109.91 92.14 103.62 C 92.06 101.39 91.48 98.44 88.93 97.86 C 86.38 97.03 83.95 98.90 82.88 101.09 C 82.53 108.23 82.95 115.40 82.67 122.55 C 80.89 122.52 79.12 122.51 77.34 122.51 C 77.25 113.02 77.37 103.53 77.28 94.04 Z" />
<path fill="#888888" opacity="1.00" d=" M 179.52 94.49 C 183.62 92.63 189.20 93.18 192.04 96.96 C 193.74 98.90 193.96 101.54 194.26 103.99 C 192.62 103.99 190.99 104.00 189.37 104.00 C 188.92 102.18 188.81 100.08 187.34 98.74 C 185.06 96.49 180.71 97.68 179.84 100.76 C 178.41 105.28 178.58 110.28 179.52 114.88 C 180.04 118.03 183.75 119.97 186.59 118.38 C 188.56 117.43 188.91 115.12 189.42 113.23 C 191.03 113.24 192.64 113.24 194.25 113.25 C 194.33 117.95 190.88 122.05 186.33 123.00 L 182.69 123.00 C 180.06 122.49 177.45 121.28 175.96 118.96 C 173.02 114.95 173.41 109.69 173.55 104.99 C 173.70 100.85 175.63 96.38 179.52 94.49 Z" />
<path fill="#888888" opacity="1.00" d=" M 200.46 97.48 C 204.31 92.07 213.56 92.10 217.37 97.53 C 220.54 101.66 220.12 107.17 219.91 112.07 C 219.66 117.23 216.00 122.30 210.66 123.00 L 207.28 123.00 C 201.84 122.41 198.11 117.23 197.88 112.01 C 197.58 107.11 197.31 101.60 200.46 97.48 M 205.64 98.75 C 203.53 100.91 203.21 104.14 203.17 107.01 C 203.17 110.40 202.99 114.13 205.02 117.06 C 206.81 119.59 211.19 119.56 212.86 116.90 C 214.61 114.30 214.63 111.04 214.65 108.03 C 214.63 105.08 214.52 101.85 212.69 99.38 C 211.11 97.21 207.60 97.00 205.64 98.75 Z" />
<path fill="#888888" opacity="1.00" d=" M 225.06 94.00 C 226.70 94.00 228.34 94.00 229.99 94.00 C 230.08 95.21 230.16 96.43 230.24 97.65 C 231.92 95.05 234.77 93.06 238.00 93.50 C 240.90 93.50 242.77 95.90 244.03 98.20 C 245.67 95.45 248.49 93.03 251.91 93.50 C 256.23 93.62 258.64 98.05 258.91 101.90 C 259.49 108.75 259.06 115.64 259.19 122.50 C 257.37 122.50 255.56 122.50 253.75 122.50 C 253.69 116.28 253.85 110.06 253.68 103.84 C 253.61 101.42 252.94 98.07 250.02 97.70 C 247.01 97.32 244.90 100.48 244.78 103.16 C 244.83 109.61 244.82 116.05 244.81 122.50 C 243.02 122.50 241.23 122.50 239.44 122.50 C 239.37 116.29 239.55 110.08 239.34 103.88 C 239.19 101.79 238.86 99.28 236.88 98.11 C 234.20 96.68 230.50 98.94 230.45 101.93 C 230.41 108.79 230.46 115.64 230.44 122.50 C 228.64 122.50 226.85 122.50 225.06 122.50 C 225.05 113.00 225.06 103.50 225.06 94.00 Z" />
<path fill="#888888" opacity="1.00" d=" M 265.24 94.01 C 266.89 94.00 268.54 94.00 270.19 94.00 C 270.27 95.22 270.34 96.44 270.41 97.66 C 272.07 95.13 274.83 93.13 278.00 93.49 C 281.07 93.43 283.17 95.96 284.26 98.54 C 285.77 94.45 290.84 92.13 294.80 94.23 C 298.29 96.11 299.16 100.44 299.30 104.07 C 299.48 110.21 299.33 116.36 299.37 122.50 C 297.56 122.50 295.75 122.50 293.94 122.50 C 293.89 116.31 294.03 110.11 293.88 103.92 C 293.74 101.72 293.40 98.72 290.95 97.90 C 287.81 96.76 285.17 100.06 285.00 102.92 C 284.96 109.44 285.03 115.97 285.00 122.50 C 283.20 122.50 281.41 122.50 279.63 122.50 C 279.56 116.31 279.74 110.11 279.54 103.92 C 279.40 101.82 279.06 99.23 277.03 98.09 C 274.29 96.67 270.60 99.05 270.63 102.07 C 270.61 108.87 270.64 115.68 270.63 122.48 C 268.87 122.49 267.11 122.53 265.36 122.59 C 265.10 113.06 265.32 103.53 265.24 94.01 Z" />
<path fill="#888888" opacity="1.00" d=" M 305.30 94.01 C 307.10 94.01 308.89 94.00 310.69 94.00 C 310.73 99.99 310.60 105.99 310.75 111.98 C 310.93 114.10 310.93 116.69 312.74 118.16 C 315.63 120.12 320.48 117.65 320.24 114.05 C 320.29 107.37 320.22 100.68 320.24 94.00 C 322.06 94.00 323.87 94.00 325.69 94.00 C 325.68 103.51 325.71 113.01 325.68 122.51 C 324.04 122.50 322.42 122.50 320.79 122.49 C 320.75 121.62 320.65 119.86 320.61 118.99 C 319.08 120.83 317.28 122.55 314.84 123.00 L 312.20 123.00 C 308.25 122.37 305.93 118.57 305.62 114.84 C 304.98 107.92 305.46 100.95 305.30 94.01 Z" />
<path fill="#888888" opacity="1.00" d=" M 331.62 93.99 C 333.29 94.00 334.96 94.02 336.64 94.05 C 336.67 95.07 336.73 97.10 336.77 98.12 C 338.39 95.23 341.50 92.93 344.97 93.54 C 349.20 93.76 351.54 98.09 351.70 101.90 C 352.10 108.76 351.77 115.64 351.88 122.50 C 350.06 122.50 348.24 122.50 346.44 122.50 C 346.40 116.29 346.49 110.07 346.41 103.86 C 346.36 101.78 346.01 99.28 344.03 98.13 C 340.84 96.48 336.60 99.51 337.00 103.01 C 336.98 109.51 337.01 116.00 337.00 122.50 C 335.20 122.50 333.41 122.50 331.63 122.50 C 331.62 112.99 331.62 103.49 331.62 93.99 Z" />
<path fill="#888888" opacity="1.00" d=" M 358.24 94.00 C 360.05 94.00 361.86 94.01 363.67 94.06 C 363.56 103.54 363.68 113.02 363.61 122.50 C 361.84 122.50 360.08 122.52 358.32 122.55 C 358.14 113.04 358.30 103.52 358.24 94.00 Z" />
<path fill="#888888" opacity="1.00" d=" M 371.14 98.06 C 374.45 92.34 383.85 91.79 387.72 97.18 C 389.28 99.10 389.46 101.63 389.77 103.98 C 388.13 103.99 386.50 104.00 384.87 104.00 C 384.46 102.29 384.35 100.36 383.10 99.00 C 381.06 96.56 376.57 97.41 375.51 100.39 C 373.89 104.31 374.30 108.72 374.59 112.85 C 374.81 115.72 376.57 119.19 379.94 118.91 C 383.07 119.08 384.56 115.89 384.89 113.24 C 386.52 113.25 388.16 113.27 389.81 113.29 C 389.75 118.00 386.32 122.21 381.63 123.00 L 378.32 123.00 C 372.91 122.47 369.27 117.28 369.10 112.12 C 368.92 107.41 368.45 102.21 371.14 98.06 Z" />
<path fill="#888888" opacity="1.00" d=" M 394.03 102.12 C 393.99 92.37 409.86 90.18 412.88 99.14 C 414.49 106.82 412.50 114.82 414.22 122.52 C 412.40 122.50 410.60 122.50 408.79 122.50 C 408.64 121.62 408.32 119.88 408.16 119.00 C 406.65 120.74 404.91 122.34 402.65 123.00 L 399.73 123.00 C 392.76 122.02 391.32 111.50 396.80 107.81 C 400.10 105.52 404.31 105.96 408.12 105.84 C 408.03 102.98 408.43 98.84 404.99 97.75 C 401.93 96.69 399.63 99.37 399.16 102.11 C 397.44 102.12 395.74 102.12 394.03 102.12 M 402.41 109.50 C 398.96 110.44 397.81 115.33 400.01 117.96 C 402.07 119.90 405.42 118.65 407.02 116.70 C 408.88 114.69 407.79 111.69 408.05 109.23 C 406.17 109.28 404.26 109.12 402.41 109.50 Z" />
<path fill="#888888" opacity="1.00" d=" M 436.33 94.05 C 438.16 94.01 439.99 94.00 441.82 93.99 C 441.81 103.49 441.81 112.99 441.82 122.49 C 440.00 122.50 438.19 122.50 436.38 122.51 C 436.33 113.02 436.43 103.54 436.33 94.05 Z" />
<path fill="#888888" opacity="1.00" d=" M 449.70 97.70 C 453.42 92.14 462.74 92.01 466.67 97.40 C 469.88 101.49 469.60 107.04 469.32 111.95 C 469.11 117.07 465.59 122.06 460.36 123.00 L 456.56 123.00 C 451.24 122.31 447.57 117.29 447.30 112.15 C 447.03 107.29 446.67 101.86 449.70 97.70 M 455.34 98.52 C 452.92 100.59 452.65 104.05 452.56 107.02 C 452.55 110.29 452.41 113.85 454.22 116.74 C 455.81 119.52 460.37 119.68 462.17 117.04 C 463.81 114.72 464.01 111.78 464.03 109.03 C 464.02 105.85 464.12 102.39 462.28 99.63 C 460.86 97.36 457.41 96.95 455.34 98.52 Z" />
<path fill="#888888" opacity="1.00" d=" M 474.33 94.05 C 476.02 94.02 477.70 94.00 479.40 93.99 C 479.44 95.29 479.49 96.60 479.54 97.91 C 481.30 95.55 483.72 93.18 486.94 93.49 C 491.11 93.25 494.11 97.16 494.38 101.02 C 495.03 108.16 494.53 115.34 494.69 122.50 C 492.87 122.50 491.06 122.50 489.25 122.50 C 489.22 116.39 489.28 110.28 489.23 104.17 C 489.13 102.01 488.94 99.33 486.82 98.15 C 483.66 96.46 479.39 99.49 479.81 102.98 C 479.80 109.48 479.82 115.99 479.82 122.49 C 478.00 122.50 476.19 122.50 474.39 122.51 C 474.32 113.03 474.43 103.54 474.33 94.05 Z" />
</g>
</svg>
