<?xml version="1.0" encoding="UTF-8" standalone="no"?>
<!-- Created with Inkscape (http://www.inkscape.org/) -->

<svg
   xmlns:dc="http://purl.org/dc/elements/1.1/"
   xmlns:cc="http://creativecommons.org/ns#"
   xmlns:rdf="http://www.w3.org/1999/02/22-rdf-syntax-ns#"
   xmlns:svg="http://www.w3.org/2000/svg"
   xmlns="http://www.w3.org/2000/svg"
   xmlns:sodipodi="http://sodipodi.sourceforge.net/DTD/sodipodi-0.dtd"
   xmlns:inkscape="http://www.inkscape.org/namespaces/inkscape"
   width="1000"
   height="997.50299"
   id="svg2"
   version="1.1"
   inkscape:version="0.48.5 r10040"
   sodipodi:docname="New document 1">
  <defs
     id="defs4" />
  <sodipodi:namedview
     id="base"
     pagecolor="#ffffff"
     bordercolor="#666666"
     borderopacity="1.0"
     inkscape:pageopacity="0.0"
     inkscape:pageshadow="2"
     inkscape:zoom="0.35355339"
     inkscape:cx="698.86217"
     inkscape:cy="454.38328"
     inkscape:document-units="px"
     inkscape:current-layer="layer1"
     showgrid="false"
     showguides="true"
     inkscape:guide-bbox="true"
     fit-margin-top="0"
     fit-margin-left="0"
     fit-margin-right="0"
     fit-margin-bottom="0"
     inkscape:window-width="1028"
     inkscape:window-height="1015"
     inkscape:window-x="883"
     inkscape:window-y="1"
     inkscape:window-maximized="0">
    <inkscape:grid
       type="xygrid"
       id="grid2996"
       empspacing="5"
       visible="true"
       enabled="true"
       snapvisiblegridlinesonly="true"
       originx="-200.3461px"
       originy="-589.76634px" />
    <sodipodi:guide
       orientation="1,0"
       position="0.0015581493,109.51882"
       id="guide3136" />
    <sodipodi:guide
       orientation="1,0"
       position="200.07187,109.7571"
       id="guide3138" />
  </sodipodi:namedview>
  <metadata
     id="metadata7">
    <rdf:RDF>
      <cc:Work
         rdf:about="">
        <dc:format>image/svg+xml</dc:format>
        <dc:type
           rdf:resource="http://purl.org/dc/dcmitype/StillImage" />
        <dc:title></dc:title>
      </cc:Work>
    </rdf:RDF>
  </metadata>
  <g
     inkscape:label="Layer 1"
     inkscape:groupmode="layer"
     id="layer1"
     transform="translate(-200.3461,534.90718)">
    <g
       id="g3059"
       transform="matrix(30.583581,0,0,30.583581,7830.6913,-12285.119)">
	<path
   style="fill:#cf0a2c"
   inkscape:connector-curvature="0"
   class="st0"
   d="m -235.4,403.5 c 0,0 0.1,0 0,-0.1 l 0,0 c -3.8,-8.4 -9.1,-14.8 -9.1,-14.8 0,0 -2.9,2.7 -2.7,5.4 0.1,2.1 1.7,3.3 1.7,3.3 2.5,2.4 8.5,5.5 9.9,6.2 0.1,0.1 0.2,0.1 0.2,0"
   id="path3061" />

	<path
   style="fill:#cf0a2c"
   inkscape:connector-curvature="0"
   class="st0"
   d="m -236.3,405.6 c 0,-0.1 -0.1,-0.1 -0.1,-0.1 v 0 l -10,0.4 c 1.1,1.9 2.9,3.5 4.8,3 1.3,-0.3 4.3,-2.4 5.3,-3.1 l 0,0 c 0,-0.1 0,-0.2 0,-0.2"
   id="path3063" />

	<path
   style="fill:#cf0a2c"
   inkscape:connector-curvature="0"
   class="st0"
   d="m -236.2,404.7 c 0,-0.1 0,-0.1 0,-0.1 l 0,0 c -4.4,-3 -13,-7.5 -13,-7.5 -0.8,2.4 0.3,4.3 0.3,4.3 1.1,2.3 3.2,3 3.2,3 1,0.4 1.9,0.4 1.9,0.4 0.2,0 6,0 7.5,0 0.1,0 0.1,-0.1 0.1,-0.1"
   id="path3065" />

	<path
   style="fill:#cf0a2c"
   inkscape:connector-curvature="0"
   class="st0"
   d="m -235.5,384.3 c -0.4,0 -1.6,0.3 -1.6,0.3 -2.7,0.7 -3.3,3.1 -3.3,3.1 -0.5,1.5 0,3.2 0,3.2 0.9,3.9 5.3,10.4 6.2,11.8 0.1,0.1 0.1,0 0.1,0 0.1,0 0.1,-0.1 0.1,-0.1 h 0 c 1.5,-14.5 -1.5,-18.3 -1.5,-18.3"
   id="path3067" />

	<path
   style="fill:#cf0a2c"
   inkscape:connector-curvature="0"
   class="st0"
   d="m -232.2,402.7 c 0.1,0 0.1,-0.1 0.1,-0.1 h 0 c 1,-1.4 5.3,-7.8 6.2,-11.8 0,0 0.5,-1.9 0,-3.2 0,0 -0.7,-2.5 -3.3,-3.1 0,0 -0.8,-0.2 -1.6,-0.3 0,0 -3,3.8 -1.5,18.3 h 0 c 0.1,0.2 0.1,0.2 0.1,0.2"
   id="path3069" />

	<path
   style="fill:#cf0a2c"
   inkscape:connector-curvature="0"
   class="st0"
   d="m -229.8,405.5 c 0,0 -0.1,0 -0.1,0.1 0,0 0,0.1 0,0.1 h 0 c 1,0.7 3.9,2.7 5.3,3.1 0,0 2.6,0.9 4.9,-3 l -10.1,-0.3 0,0 z"
   id="path3071" />

	<path
   style="fill:#cf0a2c"
   inkscape:connector-curvature="0"
   class="st0"
   d="m -217.1,397 c 0,0 -8.5,4.6 -13,7.6 h 0 c 0,0 -0.1,0.1 -0.1,0.1 0,0 0,0.1 0.1,0.1 v 0 c 1.6,0 7.6,0 7.7,0 0,0 0.8,0 1.7,-0.4 0,0 2.1,-0.7 3.2,-3.1 0.2,0 1.2,-2 0.4,-4.3"
   id="path3073" />

	<path
   style="fill:#cf0a2c"
   inkscape:connector-curvature="0"
   class="st0"
   d="m -230.8,403.5 c 0,0 0.1,0.1 0.1,0 v 0 c 1.4,-0.7 7.4,-3.8 9.9,-6.2 0,0 1.6,-1.3 1.7,-3.3 0.2,-2.8 -2.7,-5.4 -2.7,-5.4 0,0 -5.2,6.3 -9.1,14.7 h 0 c 0,0.1 0,0.2 0.1,0.2"
   id="path3075" />

</g>
    <g
       id="g3128"
       transform="matrix(2.3002395,0,0,2.3002395,-766.52232,-432.49905)">
      <polygon
         transform="matrix(6.1052845,0,0,6.1052845,1724.6559,-2082.288)"
         id="polygon3081"
         points="-163.8,401 -166.6,392.7 -168.5,392.7 -171.3,401 -173.9,392.7 -176.5,392.7 -172.3,404.7 -170.3,404.7 -167.6,396.9 -164.9,404.7 -162.8,404.7 -158.7,392.7 -161.2,392.7 "
         class="st1"
         style="fill:#262729" />
      <polygon
         transform="matrix(6.1052845,0,0,6.1052845,1724.0487,-2082.288)"
         id="polygon3077"
         points="-211.1,397.6 -211.1,392.7 -213.5,392.7 -213.5,404.7 -211.1,404.7 -211.1,399.9 -205.6,399.9 -205.6,404.7 -203.2,404.7 -203.2,392.7 -205.6,392.7 -205.6,397.6 "
         class="st1"
         style="fill:#262729" />
      <path
         id="path3079"
         d="m 552.80895,357.38369 c 0,11.60004 -6.10528,18.31585 -16.48426,18.31585 -10.98952,0 -16.48427,-6.71581 -16.48427,-18.92638 v -41.51594 h -14.65268 v 41.51594 c 0,20.75797 11.60004,32.35801 31.13695,32.35801 20.14744,0 31.74748,-12.21057 31.74748,-32.96854 v -41.51594 h -14.65269 c -0.61053,0.61053 -0.61053,42.737 -0.61053,42.737 z"
         class="st1"
         inkscape:connector-curvature="0"
         style="fill:#262729" />
      <polygon
         transform="matrix(6.1052845,0,0,6.1052845,1724.3425,-2082.288)"
         id="polygon3083"
         points="-149.9,397.4 -154.3,397.4 -154.3,394.9 -147.9,394.9 -147.9,392.8 -156.7,392.8 -156.7,404.7 -147.7,404.7 -147.7,402.5 -154.3,402.5 -154.3,399.6 -149.9,399.6 "
         class="st1"
         style="fill:#262729" />
      <rect
         id="rect3085"
         height="73.263412"
         width="14.652683"
         class="st1"
         y="315.25729"
         x="839.51776"
         style="fill:#262729" />
      <path
         id="path3087"
         d="m 630.22464,373.25743 6.71581,15.26321 h 15.26321 l -31.74748,-72.65289 0,-0.61053 h -12.8211 l -32.358,73.26342 h 15.26321 l 6.10528,-14.04216 0,0 0.61053,-1.22105 h 32.96854 z m -17.0948,-39.07382 10.37898,24.42113 h 0 l 0.61053,1.83159 H 601.5298 l 0.61053,-1.83159 h 0 l 10.98951,-24.42113 z"
         class="st1"
         inkscape:connector-curvature="0"
         style="fill:#262729" />
    </g>
  </g>
  <style
     id="style3057"
     type="text/css">
	.st0{fill:#CF0A2C;}
	.st1{fill:#262729;}
</style>
</svg>
