<?xml version="1.0" encoding="UTF-8" standalone="no"?>
<!-- Created with Inkscape (http://www.inkscape.org/) -->

<svg
   width="264.58334mm"
   height="310.91293mm"
   viewBox="0 0 264.58334 310.91293"
   version="1.1"
   id="svg1"
   xmlns:inkscape="http://www.inkscape.org/namespaces/inkscape"
   xmlns:sodipodi="http://sodipodi.sourceforge.net/DTD/sodipodi-0.dtd"
   xmlns="http://www.w3.org/2000/svg"
   xmlns:svg="http://www.w3.org/2000/svg">
  <sodipodi:namedview
     id="namedview1"
     pagecolor="#ffffff"
     bordercolor="#000000"
     borderopacity="0.25"
     inkscape:showpageshadow="2"
     inkscape:pageopacity="0.0"
     inkscape:pagecheckerboard="0"
     inkscape:deskcolor="#d1d1d1"
     inkscape:document-units="mm" />
  <defs
     id="defs1">
    <clipPath
       clipPathUnits="userSpaceOnUse"
       id="clipEmfPath1">
      <path
         d="M 0,113.27916 H 96.399286 V 0 H 0 Z"
         id="path1" />
    </clipPath>
    <pattern
       id="EMFhbasepattern"
       patternUnits="userSpaceOnUse"
       width="6"
       height="6"
       x="0"
       y="0" />
  </defs>
  <g
     inkscape:label="Layer 1"
     inkscape:groupmode="layer"
     id="layer1"
     transform="translate(-168.275,-141.2875)">
    <path
       style="fill:#ed1c24;fill-opacity:1;fill-rule:nonzero;stroke:none;stroke-width:2.74466"
       d="m 266.20375,141.2875 -18.88313,18.0048 V 187.617 H 168.275 V 452.20044 H 432.85833 V 187.617 H 353.59311 V 159.2923 L 335.5883,141.2875 Z m 0,18.0048 h 69.38455 v 28.3247 h -69.38455 z"
       id="path2" />
    <path
       style="fill:#ffffff;fill-opacity:1;fill-rule:nonzero;stroke:none"
       clip-path="url(#clipEmfPath1)"
       d="m 64.719521,74.079451 c 0,1.759987 -1.43999,3.199977 -3.199977,3.199977 -1.759987,0 -3.119977,-1.43999 -3.119977,-3.199977 0,-1.759987 1.35999,-3.199976 3.119977,-3.199976 1.759987,0 3.199977,1.439989 3.199977,3.199976 z"
       id="path3"
       transform="matrix(2.7446612,0,0,2.7446612,168.275,141.2875)" />
    <path
       style="fill:#ffffff;fill-opacity:1;fill-rule:nonzero;stroke:none"
       clip-path="url(#clipEmfPath1)"
       d="M 85.359368,75.59944 H 72.479463 v -4.07997 h 12.879905 z"
       id="path4"
       transform="matrix(2.7446612,0,0,2.7446612,168.275,141.2875)" />
    <path
       style="fill:#ffffff;fill-opacity:1;fill-rule:nonzero;stroke:none"
       clip-path="url(#clipEmfPath1)"
       d="m 85.679365,82.879386 c -0.08,-0.08 -0.08,-0.159999 -0.08,-0.239998 v -0.159999 h -3.839972 v 0.159999 c 0,0.08 0,0.08 0,0.159999 0.08,0.159998 0.08,0.319997 0.08,0.479996 0,5.679958 -4.399968,10.239924 -9.839927,10.239924 -5.359961,0 -9.759928,-4.559966 -9.759928,-10.239924 0,-0.239998 0,-0.399997 0,-0.639995 l 0.08,-0.159999 h -3.919971 v 0.319998 c 0,0.159998 0,0.319997 0,0.479996 0,7.839942 6.079955,14.319894 13.5999,14.319894 7.519944,0 13.679898,-6.479952 13.679898,-14.319894 0,-0.159999 0,-0.239998 0,-0.399997 z"
       id="path5"
       transform="matrix(2.7446612,0,0,2.7446612,168.275,141.2875)" />
    <path
       style="fill:#ffffff;fill-opacity:1;fill-rule:nonzero;stroke:none"
       clip-path="url(#clipEmfPath1)"
       d="m 43.19968,59.35956 h 4.799964 V 32.559759 H 43.19968 Z"
       id="path6"
       transform="matrix(2.7446612,0,0,2.7446612,168.275,141.2875)" />
    <path
       style="fill:#ffffff;fill-opacity:1;fill-rule:nonzero;stroke:none"
       clip-path="url(#clipEmfPath1)"
       d="M 74.639447,59.35956 V 32.559759 H 69.919482 V 50.719624 L 58.639566,32.559759 H 53.919601 V 59.35956 h 4.719965 V 41.199695 L 69.839483,59.35956 Z"
       id="path7"
       transform="matrix(2.7446612,0,0,2.7446612,168.275,141.2875)" />
    <path
       style="fill:#ffffff;fill-opacity:1;fill-rule:nonzero;stroke:none"
       clip-path="url(#clipEmfPath1)"
       d="m 80.559403,59.35956 h 4.719965 V 32.559759 h -4.719965 z"
       id="path8"
       transform="matrix(2.7446612,0,0,2.7446612,168.275,141.2875)" />
    <path
       style="fill:#ffffff;fill-opacity:1;fill-rule:nonzero;stroke:none"
       clip-path="url(#clipEmfPath1)"
       d="m 21.279842,81.519396 c -4.159969,-1.27999 -5.439959,-2.079984 -5.439959,-3.599973 0,-1.759987 1.679987,-2.799979 4.239968,-2.799979 h 0.159999 c 1.839986,0 4.07997,0.799994 4.639966,2.559981 l 3.99997,-1.519989 c -0.879993,-3.679973 -5.039963,-5.519959 -8.639936,-5.519959 -6.319953,0 -9.119932,3.759972 -9.119932,7.439945 0,3.759972 2.399982,6.079955 8.399937,7.839942 4.399968,1.359989 5.839957,2.079984 5.839957,3.919971 0,1.919985 -1.999985,3.199976 -5.039963,3.199976 -2.879978,0 -5.119962,-1.279991 -5.759957,-3.199976 l -4.159969,1.519988 c 0.879993,3.599974 5.279961,6.239954 10.399923,6.239954 6.959948,0 9.359931,-4.07997 9.359931,-7.999941 0,-4.879964 -3.999971,-6.559951 -8.879935,-8.07994 z"
       id="path9"
       transform="matrix(2.7446612,0,0,2.7446612,168.275,141.2875)" />
    <path
       style="fill:#ffffff;fill-opacity:1;fill-rule:nonzero;stroke:none"
       clip-path="url(#clipEmfPath1)"
       d="m 48.399641,87.999348 c 0,0.719995 -0.159998,1.439989 -0.479996,2.079985 -0.239998,0.639995 -0.639995,1.199991 -1.119992,1.679987 -0.479996,0.479997 -1.039992,0.879994 -1.759987,1.119992 -0.639995,0.319998 -1.27999,0.399997 -1.999985,0.399997 -0.719994,0 -1.439989,-0.08 -2.079984,-0.399997 -0.639996,-0.239998 -1.279991,-0.639995 -1.759987,-1.119992 -0.479997,-0.479996 -0.799994,-1.039992 -1.119992,-1.679987 -0.239998,-0.639996 -0.399997,-1.35999 -0.399997,-2.079985 v -7.839942 c 0,-0.719994 0.159999,-1.35999 0.399997,-1.999985 0.319998,-0.639995 0.639995,-1.199991 1.119992,-1.679988 0.479996,-0.559995 1.119991,-0.879993 1.759987,-1.199991 1.27999,-0.479996 2.799979,-0.479996 4.079969,0 0.719995,0.319998 1.279991,0.639996 1.759987,1.199991 0.479997,0.479997 0.879994,1.039993 1.119992,1.679988 0.319998,0.639995 0.479996,1.279991 0.479996,1.999985 z m 3.919971,3.359975 c 0.559996,-1.199991 0.799995,-2.479981 0.799995,-3.919971 v -6.71995 c 0,-1.35999 -0.239999,-2.63998 -0.799995,-3.919971 -0.559995,-1.199991 -1.27999,-2.319983 -2.159984,-3.199976 -0.959992,-0.879994 -1.999985,-1.599988 -3.199976,-2.159984 -1.27999,-0.559996 -2.559981,-0.799994 -3.919971,-0.799994 -1.35999,0 -2.71998,0.239998 -3.919971,0.799994 -1.27999,0.559996 -2.319983,1.27999 -3.199976,2.159984 -0.959993,0.879993 -1.679988,1.999985 -2.239983,3.199976 -0.479997,1.279991 -0.799995,2.559981 -0.799995,3.919971 v 6.79995 c 0,1.35999 0.319998,2.71998 0.799995,3.919971 0.559995,1.199991 1.27999,2.319982 2.239983,3.199976 0.879993,0.879993 1.919986,1.599988 3.199976,2.159984 1.199991,0.559996 2.559981,0.799994 3.919971,0.799994 1.35999,0 2.639981,-0.319998 3.919971,-0.799994 1.199991,-0.559996 2.239984,-1.279991 3.199976,-2.159984 0.879994,-0.959993 1.599989,-1.999985 2.159984,-3.279976 z"
       id="path10"
       transform="matrix(2.7446612,0,0,2.7446612,168.275,141.2875)" />
    <path
       style="fill:#ffffff;fill-opacity:1;fill-rule:nonzero;stroke:none"
       clip-path="url(#clipEmfPath1)"
       d="M 37.279724,59.35956 V 32.559759 H 32.879756 L 24.159821,47.599647 15.599884,32.559759 H 11.039918 V 59.35956 h 4.799965 V 42.479685 l 6.959948,12.15991 h 2.799979 l 6.959949,-12.15991 V 59.35956 Z"
       id="path11"
       transform="matrix(2.7446612,0,0,2.7446612,168.275,141.2875)" />
  </g>
</svg>
