<?xml version="1.0" encoding="UTF-8" ?><!DOCTYPE svg PUBLIC "-//W3C//DTD SVG 1.1//EN" "http://www.w3.org/Graphics/SVG/1.1/DTD/svg11.dtd"><svg width="376pt" height="298pt" viewBox="0 0 376 298" version="1.1" xmlns="http://www.w3.org/2000/svg"><g id="#ffffffff"><path fill="#ffffff" opacity="1.00" d=" M 230.30 0.00 L 250.89 0.00 C 254.99 1.59 259.64 0.55 263.95 1.32 C 274.14 3.19 284.28 5.90 293.60 10.52 C 310.17 18.50 324.51 30.99 334.79 46.23 C 346.52 64.11 353.13 85.53 352.23 106.99 C 351.86 125.93 345.64 144.52 335.49 160.43 C 321.30 181.75 299.23 197.76 274.35 204.10 C 264.13 206.83 253.50 207.49 242.96 207.34 C 225.35 207.33 207.73 207.34 190.12 207.33 C 190.14 179.76 190.08 152.19 190.15 124.62 C 204.01 112.67 217.80 100.63 231.64 88.64 C 231.65 114.43 231.64 140.21 231.65 166.00 C 243.04 165.78 254.72 166.99 265.79 163.61 C 286.26 157.92 303.02 140.93 308.61 120.45 C 312.90 105.20 311.09 88.33 303.51 74.41 C 295.41 59.24 280.72 47.77 264.02 43.65 C 253.47 40.86 242.48 41.96 231.70 41.73 C 197.00 71.80 162.35 101.92 127.65 131.98 C 108.85 114.89 90.06 97.79 71.23 80.74 C 71.24 122.93 71.24 165.13 71.23 207.33 C 57.43 207.33 43.63 207.33 29.83 207.33 C 29.82 138.38 29.83 69.42 29.83 0.47 C 34.56 0.47 39.30 0.47 44.04 0.47 C 72.91 26.62 101.79 52.77 130.65 78.94 C 157.79 54.31 184.90 29.65 212.01 4.99 C 215.30 2.14 218.51 -2.21 223.84 0.54 L 230.30 0.00 Z"/><path fill="#ffffff" opacity="1.00" d=" M 0.12 239.60 C 125.37 239.60 250.63 239.60 375.88 239.60 C 375.88 241.13 375.88 242.66 375.88 244.20 C 250.63 244.20 125.37 244.20 0.12 244.20 C 0.12 242.66 0.12 241.13 0.12 239.60 Z"/><path fill="#ffffff" opacity="1.00" d=" M 21.72 267.29 C 26.84 267.46 32.33 266.42 37.08 268.88 C 42.83 271.83 46.46 278.74 44.90 285.12 C 43.74 291.17 38.38 296.11 32.27 296.83 C 28.77 297.19 25.24 296.93 21.73 297.00 C 21.72 287.09 21.75 277.19 21.72 267.29 M 27.72 273.26 C 27.75 279.19 27.73 285.12 27.73 291.05 C 30.38 291.07 33.27 291.14 35.45 289.38 C 39.79 286.58 40.67 279.71 36.84 276.12 C 34.56 273.52 30.99 272.98 27.72 273.26 Z"/><path fill="#ffffff" opacity="1.00" d=" M 60.54 267.29 C 61.02 267.29 61.99 267.28 62.47 267.28 C 67.13 277.20 71.80 287.10 76.49 297.01 C 74.26 297.00 72.04 296.99 69.82 296.98 C 69.01 295.13 68.16 293.29 67.30 291.46 C 63.21 291.47 59.11 291.47 55.01 291.46 C 54.08 293.31 53.14 295.15 52.21 297.00 C 49.97 297.00 47.73 297.00 45.48 297.00 C 50.51 287.10 55.73 277.30 60.54 267.29 M 58.08 285.58 C 60.21 285.54 62.35 285.54 64.48 285.55 C 63.47 283.34 62.44 281.14 61.41 278.94 C 60.28 281.14 59.18 283.36 58.08 285.58 Z"/><path fill="#ffffff" opacity="1.00" d=" M 79.72 267.31 C 80.19 267.29 81.11 267.25 81.57 267.23 C 87.17 272.72 92.62 278.36 98.26 283.81 C 98.28 278.29 98.26 272.78 98.27 267.27 C 100.27 267.26 102.27 267.26 104.27 267.27 C 104.26 277.24 104.28 287.21 104.26 297.18 C 101.51 297.01 100.21 294.22 98.39 292.55 C 94.12 288.32 90.07 283.89 85.77 279.70 C 85.70 285.46 85.73 291.22 85.75 296.98 C 83.74 296.99 81.74 297.00 79.73 297.00 C 79.73 287.10 79.75 277.21 79.72 267.31 Z"/><path fill="#ffffff" opacity="1.00" d=" M 117.71 268.78 C 123.03 265.57 130.01 266.37 134.91 270.00 C 133.63 271.46 132.34 272.90 131.05 274.35 C 125.17 270.58 116.21 274.82 116.43 282.08 C 115.94 289.71 125.54 294.22 131.50 289.81 C 132.68 291.15 133.88 292.49 135.11 293.80 C 128.66 299.95 116.97 298.04 112.31 290.56 C 107.29 283.52 110.10 272.74 117.71 268.78 Z"/><path fill="#ffffff" opacity="1.00" d=" M 140.73 267.27 C 147.39 267.26 154.06 267.27 160.73 267.27 C 160.73 269.27 160.73 271.26 160.74 273.27 C 156.07 273.26 151.40 273.27 146.73 273.26 C 146.73 275.01 146.73 276.76 146.73 278.51 C 150.58 278.54 154.42 278.53 158.27 278.53 C 158.26 280.51 158.26 282.49 158.27 284.47 C 154.42 284.46 150.57 284.45 146.73 284.49 C 146.73 286.65 146.73 288.83 146.74 291.00 C 151.31 291.00 155.89 291.00 160.47 291.00 C 160.47 293.00 160.46 295.00 160.47 297.00 C 153.89 297.00 147.31 297.00 140.73 297.00 C 140.73 287.09 140.74 277.18 140.73 267.27 Z"/><path fill="#ffffff" opacity="1.00" d=" M 184.77 267.85 C 189.51 265.35 194.97 267.51 198.97 270.40 C 197.89 272.07 196.83 273.75 195.79 275.45 C 193.38 273.79 190.29 271.74 187.30 273.19 C 185.08 274.19 185.86 277.44 188.02 277.97 C 191.91 279.27 196.32 280.72 198.44 284.56 C 201.28 289.23 198.00 295.70 192.95 297.08 C 187.56 298.52 181.88 296.10 178.03 292.34 C 179.39 290.96 180.78 289.63 182.19 288.30 C 184.67 290.30 187.71 292.03 191.03 291.50 C 192.77 291.26 193.20 289.31 193.85 288.01 C 190.95 283.60 184.63 284.58 181.57 280.40 C 178.50 276.39 180.01 269.80 184.77 267.85 Z"/><path fill="#ffffff" opacity="1.00" d=" M 206.77 274.72 C 211.01 266.51 222.74 264.27 229.91 270.00 C 228.63 271.45 227.34 272.90 226.05 274.34 C 221.97 272.05 216.25 272.64 213.37 276.54 C 209.58 281.05 211.61 288.75 217.12 290.82 C 220.26 292.33 223.72 291.25 226.66 289.81 C 227.81 291.24 228.97 292.68 230.18 294.08 C 225.40 297.73 218.63 298.63 213.23 295.82 C 205.64 292.25 202.31 281.94 206.77 274.72 Z"/><path fill="#ffffff" opacity="1.00" d=" M 235.71 267.30 C 237.72 267.28 239.72 267.25 241.73 267.26 C 241.74 271.01 241.73 274.76 241.73 278.51 C 245.39 278.54 249.06 278.52 252.73 278.55 C 252.74 274.79 252.74 271.03 252.72 267.27 C 254.72 267.26 256.73 267.27 258.73 267.27 C 258.75 277.17 258.70 287.07 258.76 296.97 C 256.75 296.99 254.74 297.00 252.73 297.01 C 252.73 292.82 252.73 288.64 252.73 284.46 C 249.06 284.47 245.40 284.45 241.73 284.49 C 241.73 288.65 241.73 292.82 241.74 296.99 C 239.73 297.00 237.73 297.00 235.73 297.00 C 235.72 287.10 235.76 277.20 235.71 267.30 Z"/><path fill="#ffffff" opacity="1.00" d=" M 275.16 267.21 C 283.30 264.94 292.59 270.64 294.13 278.98 C 296.34 287.84 288.94 297.12 279.94 297.48 C 272.37 298.08 264.78 292.53 263.56 284.93 C 261.88 277.15 267.39 268.83 275.16 267.21 M 276.24 273.12 C 272.06 274.30 268.96 278.62 269.47 282.99 C 269.82 288.43 275.68 292.73 280.97 291.29 C 285.87 290.24 289.40 284.86 288.01 279.96 C 286.99 274.88 281.16 271.47 276.24 273.12 Z"/><path fill="#ffffff" opacity="1.00" d=" M 310.19 267.20 C 317.94 265.09 326.87 270.13 328.86 277.96 C 331.25 285.34 326.75 293.87 319.51 296.46 C 311.58 299.75 301.41 295.10 299.04 286.78 C 296.10 278.60 301.72 268.91 310.19 267.20 M 311.26 273.11 C 304.61 274.73 302.02 284.18 307.24 288.75 C 311.87 293.95 321.32 291.35 322.94 284.68 C 325.20 277.95 317.96 270.77 311.26 273.11 Z"/><path fill="#ffffff" opacity="1.00" d=" M 334.73 267.28 C 336.72 267.27 338.73 267.26 340.73 267.27 C 340.74 275.18 340.73 283.09 340.73 291.00 C 344.40 291.00 348.07 290.99 351.74 291.02 C 351.73 293.00 351.73 294.99 351.75 296.98 C 346.08 297.02 340.40 296.99 334.73 297.00 C 334.73 287.09 334.74 277.18 334.73 267.28 Z"/></g></svg>